<svg xmlns="http://www.w3.org/2000/svg" xmlns:xlink="http://www.w3.org/1999/xlink" width="500" zoomAndPan="magnify" viewBox="0 0 375 374.999991" height="500" preserveAspectRatio="xMidYMid meet" version="1.0"><defs><g/><clipPath id="id1"><path d="M 51.671875 114.832031 L 160.410156 114.832031 L 160.410156 208.574219 L 51.671875 208.574219 Z M 51.671875 114.832031 " clip-rule="nonzero"/></clipPath></defs><g clip-path="url(#id1)"><path fill="#00c2cb" d="M 160.222656 152.144531 C 158.804688 165.5625 150 177.910156 140.90625 187.417969 C 134.121094 194.515625 125.5 200.75 115.625 202.410156 C 115.28125 202.46875 114.945312 202.515625 114.605469 202.550781 C 107.109375 203.375 100.773438 199.242188 95.3125 194.429688 C 77.328125 178.570312 72.800781 154.402344 72.800781 154.402344 C 77.484375 163.984375 81.976562 171.355469 86.292969 177.011719 C 93.785156 186.839844 100.746094 191.46875 107.222656 193.386719 C 108.632812 193.800781 110.019531 194.09375 111.382812 194.28125 C 112.773438 194.472656 114.15625 194.46875 115.511719 194.320312 C 118.96875 193.941406 122.261719 192.609375 125.054688 191.0625 C 133.277344 186.511719 139.523438 178.480469 144.15625 170.5625 C 148.289062 163.503906 149.90625 156.070312 147.320312 148.148438 C 144.675781 140.039062 139.589844 135.511719 131.015625 134.941406 C 129.5625 134.84375 128.058594 134.859375 126.464844 135.035156 C 122.070312 135.515625 116.984375 137.195312 110.347656 141.019531 C 110.339844 141.023438 110.332031 141.027344 110.324219 141.027344 C 109.429688 141.125 99.542969 126.34375 83.148438 128.136719 C 82.199219 128.242188 81.226562 128.402344 80.238281 128.625 C 71.84375 130.496094 65.195312 137.742188 64.042969 146.15625 C 60.0625 175.183594 97.957031 203.734375 105.3125 208.574219 C 95.175781 206.34375 44.761719 182.894531 52.472656 139.871094 C 53.980469 131.449219 58.003906 125.496094 63.824219 121.445312 C 68.808594 117.972656 74.773438 115.703125 80.867188 115.035156 C 85.023438 114.582031 89.242188 114.871094 93.25 116.03125 C 100.394531 118.105469 106.550781 122.757812 110.53125 128.9375 C 111.601562 127.917969 119.773438 121.761719 129.972656 120.640625 C 133.988281 120.203125 138.320312 120.542969 142.65625 122.289062 C 148.59375 124.683594 153.203125 128.800781 156.402344 134.40625 C 159.707031 140.195312 160.925781 145.46875 160.222656 152.144531 " fill-opacity="1" fill-rule="nonzero"/></g><path fill="#00c2cb" d="M 132.902344 159.480469 C 132.902344 159.480469 136.917969 150.925781 135.472656 148.148438 C 135.472656 148.148438 134.082031 144.273438 133.070312 145.675781 C 133.070312 145.675781 131.277344 147.292969 131.546875 149.785156 L 132.320312 160.523438 Z M 128.304688 165.109375 C 128.304688 165.109375 131.832031 162.589844 131.753906 161.140625 L 129.59375 150.375 C 129.59375 150.375 127.902344 145.960938 126.246094 151.304688 Z M 108.242188 191.78125 C 108.242188 191.78125 89.726562 167.617188 112.871094 162.0625 C 112.871094 162.0625 118.433594 160.082031 122.140625 155.253906 C 122.140625 155.253906 124.285156 153.8125 125.273438 157.015625 C 125.273438 157.015625 124.992188 159.5 124.667969 159.878906 C 124.34375 160.261719 125.96875 160.140625 115.71875 167.3125 C 115.71875 167.3125 113.867188 170.019531 118.078125 169.855469 C 118.078125 169.855469 126.433594 168.644531 131.289062 164.160156 C 131.289062 164.160156 134.042969 162.613281 135.078125 157.390625 L 136.671875 149.382812 C 136.671875 149.382812 139.453125 146.824219 139.871094 150.335938 C 139.871094 150.335938 141.328125 156.960938 137.710938 165.609375 C 137.710938 165.609375 137.257812 167.605469 134.296875 169.3125 L 120.867188 179.382812 C 120.867188 179.382812 104.988281 186.859375 108.242188 191.78125 " fill-opacity="1" fill-rule="nonzero"/><g fill="#ffbd59" fill-opacity="1"><g transform="translate(169.394115, 159.960635)"><g><path d="M 2.03125 -20.296875 L 11.625 -20.296875 C 13.90625 -20.296875 15.71875 -19.835938 17.0625 -18.921875 C 18.40625 -18.003906 19.078125 -16.769531 19.078125 -15.21875 C 19.078125 -14.15625 18.765625 -13.222656 18.140625 -12.421875 C 17.523438 -11.617188 16.679688 -11.066406 15.609375 -10.765625 C 16.878906 -10.503906 17.890625 -9.910156 18.640625 -8.984375 C 19.398438 -8.054688 19.78125 -6.9375 19.78125 -5.625 C 19.78125 -3.90625 19.078125 -2.535156 17.671875 -1.515625 C 16.273438 -0.503906 14.378906 0 11.984375 0 L 2.03125 0 Z M 7.15625 -16.359375 L 7.15625 -12.1875 L 11.34375 -12.1875 C 12.09375 -12.1875 12.6875 -12.375 13.125 -12.75 C 13.570312 -13.125 13.796875 -13.640625 13.796875 -14.296875 C 13.796875 -14.929688 13.570312 -15.429688 13.125 -15.796875 C 12.6875 -16.171875 12.09375 -16.359375 11.34375 -16.359375 Z M 7.15625 -8.46875 L 7.15625 -3.96875 L 11.34375 -3.96875 C 12.300781 -3.96875 13.054688 -4.171875 13.609375 -4.578125 C 14.160156 -4.984375 14.4375 -5.546875 14.4375 -6.265625 C 14.4375 -6.941406 14.160156 -7.476562 13.609375 -7.875 C 13.054688 -8.269531 12.300781 -8.46875 11.34375 -8.46875 Z M 7.15625 -8.46875 "/></g></g></g><g fill="#ffbd59" fill-opacity="1"><g transform="translate(193.139543, 159.960635)"><g><path d="M 11.65625 -20.46875 C 14.8125 -20.46875 17.429688 -19.488281 19.515625 -17.53125 C 21.609375 -15.570312 22.65625 -13.117188 22.65625 -10.171875 C 22.65625 -7.210938 21.601562 -4.738281 19.5 -2.75 C 17.40625 -0.757812 14.789062 0.234375 11.65625 0.234375 C 8.519531 0.234375 5.910156 -0.753906 3.828125 -2.734375 C 1.742188 -4.722656 0.703125 -7.203125 0.703125 -10.171875 C 0.703125 -13.128906 1.742188 -15.582031 3.828125 -17.53125 C 5.910156 -19.488281 8.519531 -20.46875 11.65625 -20.46875 Z M 11.71875 -16.15625 C 10.132812 -16.15625 8.78125 -15.578125 7.65625 -14.421875 C 6.53125 -13.273438 5.96875 -11.847656 5.96875 -10.140625 C 5.96875 -8.441406 6.53125 -7.007812 7.65625 -5.84375 C 8.789062 -4.675781 10.140625 -4.09375 11.703125 -4.09375 C 13.273438 -4.09375 14.609375 -4.675781 15.703125 -5.84375 C 16.796875 -7.007812 17.34375 -8.441406 17.34375 -10.140625 C 17.34375 -11.847656 16.796875 -13.273438 15.703125 -14.421875 C 14.609375 -15.578125 13.28125 -16.15625 11.71875 -16.15625 Z M 11.71875 -16.15625 "/></g></g></g><g fill="#ffbd59" fill-opacity="1"><g transform="translate(219.494272, 159.960635)"><g><path d="M 11.65625 -20.46875 C 14.8125 -20.46875 17.429688 -19.488281 19.515625 -17.53125 C 21.609375 -15.570312 22.65625 -13.117188 22.65625 -10.171875 C 22.65625 -7.210938 21.601562 -4.738281 19.5 -2.75 C 17.40625 -0.757812 14.789062 0.234375 11.65625 0.234375 C 8.519531 0.234375 5.910156 -0.753906 3.828125 -2.734375 C 1.742188 -4.722656 0.703125 -7.203125 0.703125 -10.171875 C 0.703125 -13.128906 1.742188 -15.582031 3.828125 -17.53125 C 5.910156 -19.488281 8.519531 -20.46875 11.65625 -20.46875 Z M 11.71875 -16.15625 C 10.132812 -16.15625 8.78125 -15.578125 7.65625 -14.421875 C 6.53125 -13.273438 5.96875 -11.847656 5.96875 -10.140625 C 5.96875 -8.441406 6.53125 -7.007812 7.65625 -5.84375 C 8.789062 -4.675781 10.140625 -4.09375 11.703125 -4.09375 C 13.273438 -4.09375 14.609375 -4.675781 15.703125 -5.84375 C 16.796875 -7.007812 17.34375 -8.441406 17.34375 -10.140625 C 17.34375 -11.847656 16.796875 -13.273438 15.703125 -14.421875 C 14.609375 -15.578125 13.28125 -16.15625 11.71875 -16.15625 Z M 11.71875 -16.15625 "/></g></g></g><g fill="#ffbd59" fill-opacity="1"><g transform="translate(245.849002, 159.960635)"><g><path d="M 15.25 0 L 9.890625 -7.96875 L 7.1875 -4.984375 L 7.1875 0 L 2.03125 0 L 2.03125 -20.296875 L 7.1875 -20.296875 L 7.1875 -11.515625 L 14.96875 -20.296875 L 20.9375 -20.296875 L 13.390625 -11.890625 L 21.4375 0 Z M 15.25 0 "/></g></g></g><g fill="#ffbd59" fill-opacity="1"><g transform="translate(270.522181, 159.960635)"><g><path d="M 7.1875 0 L 2.03125 0 L 2.03125 -20.296875 L 7.1875 -20.296875 Z M 7.1875 0 "/></g></g></g><g fill="#ffbd59" fill-opacity="1"><g transform="translate(282.757711, 159.960635)"><g><path d="M 20.765625 0 L 16.21875 0 L 6.875 -12.5 L 6.875 0 L 2.03125 0 L 2.03125 -20.296875 L 6.578125 -20.296875 L 15.953125 -7.765625 L 15.953125 -20.296875 L 20.765625 -20.296875 Z M 20.765625 0 "/></g></g></g><g fill="#ffbd59" fill-opacity="1"><g transform="translate(308.561585, 159.960635)"><g><path d="M 15.515625 -10.328125 L 19.984375 -10.328125 L 19.984375 -2.40625 C 18.878906 -1.632812 17.546875 -1 15.984375 -0.5 C 14.429688 -0.0078125 12.953125 0.234375 11.546875 0.234375 C 8.453125 0.234375 5.867188 -0.753906 3.796875 -2.734375 C 1.734375 -4.722656 0.703125 -7.195312 0.703125 -10.15625 C 0.703125 -13.09375 1.765625 -15.546875 3.890625 -17.515625 C 6.015625 -19.484375 8.679688 -20.46875 11.890625 -20.46875 C 13.398438 -20.46875 14.898438 -20.195312 16.390625 -19.65625 C 17.878906 -19.113281 19.144531 -18.378906 20.1875 -17.453125 L 17.28125 -13.953125 C 16.550781 -14.628906 15.703125 -15.164062 14.734375 -15.5625 C 13.765625 -15.957031 12.804688 -16.15625 11.859375 -16.15625 C 10.191406 -16.15625 8.789062 -15.578125 7.65625 -14.421875 C 6.53125 -13.273438 5.96875 -11.851562 5.96875 -10.15625 C 5.96875 -8.425781 6.535156 -6.984375 7.671875 -5.828125 C 8.816406 -4.671875 10.234375 -4.09375 11.921875 -4.09375 C 13.003906 -4.09375 14.203125 -4.421875 15.515625 -5.078125 Z M 15.515625 -10.328125 "/></g></g></g><g fill="#ffbd59" fill-opacity="1"><g transform="translate(168.412634, 194.660627)"><g><path d="M 11.546875 -20.46875 C 13.046875 -20.46875 14.523438 -20.160156 15.984375 -19.546875 C 17.453125 -18.929688 18.695312 -18.097656 19.71875 -17.046875 L 16.734375 -13.515625 C 16.078125 -14.328125 15.285156 -14.96875 14.359375 -15.4375 C 13.441406 -15.914062 12.53125 -16.15625 11.625 -16.15625 C 10.019531 -16.15625 8.675781 -15.585938 7.59375 -14.453125 C 6.507812 -13.328125 5.96875 -11.929688 5.96875 -10.265625 C 5.96875 -8.566406 6.507812 -7.144531 7.59375 -6 C 8.675781 -4.863281 10.019531 -4.296875 11.625 -4.296875 C 12.476562 -4.296875 13.363281 -4.503906 14.28125 -4.921875 C 15.195312 -5.347656 16.015625 -5.929688 16.734375 -6.671875 L 19.75 -3.484375 C 18.644531 -2.359375 17.34375 -1.457031 15.84375 -0.78125 C 14.34375 -0.101562 12.851562 0.234375 11.375 0.234375 C 8.3125 0.234375 5.765625 -0.757812 3.734375 -2.75 C 1.710938 -4.738281 0.703125 -7.222656 0.703125 -10.203125 C 0.703125 -13.128906 1.734375 -15.570312 3.796875 -17.53125 C 5.867188 -19.488281 8.453125 -20.46875 11.546875 -20.46875 Z M 11.546875 -20.46875 "/></g></g></g><g fill="#ffbd59" fill-opacity="1"><g transform="translate(191.694202, 194.660627)"><g><path d="M 15.515625 -3.734375 L 6.640625 -3.734375 L 5.15625 0 L -0.140625 0 L 8.609375 -20.296875 L 13.921875 -20.296875 L 22.46875 0 L 16.96875 0 Z M 14 -7.65625 L 11.109375 -15.171875 L 8.15625 -7.65625 Z M 14 -7.65625 "/></g></g></g><g fill="#ffbd59" fill-opacity="1"><g transform="translate(217.237156, 194.660627)"><g><path d="M 14.265625 0 L 11.25 -5.71875 L 7.1875 -5.71875 L 7.1875 0 L 2.03125 0 L 2.03125 -20.296875 L 11.109375 -20.296875 C 13.796875 -20.296875 15.875 -19.679688 17.34375 -18.453125 C 18.8125 -17.222656 19.546875 -15.476562 19.546875 -13.21875 C 19.546875 -10.09375 18.316406 -7.921875 15.859375 -6.703125 L 20.125 0 Z M 7.1875 -9.765625 L 11.109375 -9.765625 C 12.222656 -9.765625 13.085938 -10.046875 13.703125 -10.609375 C 14.328125 -11.171875 14.640625 -11.984375 14.640625 -13.046875 C 14.640625 -14.085938 14.328125 -14.878906 13.703125 -15.421875 C 13.085938 -15.960938 12.222656 -16.234375 11.109375 -16.234375 L 7.1875 -16.234375 Z M 7.1875 -9.765625 "/></g></g></g><g fill="#ffbd59" fill-opacity="1"><g transform="translate(241.446472, 194.660627)"><g><path d="M 17.921875 -16.234375 L 7.1875 -16.234375 L 7.1875 -12.203125 L 16.875 -12.203125 L 16.875 -8.15625 L 7.1875 -8.15625 L 7.1875 -4.0625 L 18.234375 -4.0625 L 18.234375 0 L 2.03125 0 L 2.03125 -20.296875 L 17.921875 -20.296875 Z M 17.921875 -16.234375 "/></g></g></g></svg>